<?xml version="1.0" encoding="UTF-8"?>
<svg width="80" height="80" viewBox="0 0 80 80" fill="none" xmlns="http://www.w3.org/2000/svg">
  <g filter="url(#glow)">
    <!-- Shield outline -->
    <path d="M40 15L60 25V40C60 50 52 58 40 65C28 58 20 50 20 40V25L40 15Z" 
          stroke="url(#gradient)" stroke-width="2" fill="none">
      <animate attributeName="stroke-dasharray" from="0 200" to="200 200" dur="2s" begin="0s" fill="freeze" />
    </path>

    <!-- Inner shield -->
    <path d="M40 20L55 28V40C55 48 48 54 40 60C32 54 25 48 25 40V28L40 20Z" 
          fill="url(#gradient)" opacity="0.1">
      <animate attributeName="opacity" values="0.1;0.3;0.1" dur="2s" repeatCount="indefinite" />
    </path>

    <!-- Checkmark -->
    <path d="M32 40L38 46L48 34" 
          stroke="#fff" stroke-width="2" stroke-linecap="round" stroke-linejoin="round">
      <animate attributeName="stroke-dasharray" from="0 50" to="50 50" dur="1s" begin="1s" fill="freeze" />
    </path>

    <!-- Rotating ring -->
    <g>
      <circle cx="40" cy="40" r="15" stroke="#fff" stroke-width="1" fill="none" opacity="0.3">
        <animateTransform attributeName="transform" type="rotate" from="0 40 40" to="360 40 40" dur="10s" repeatCount="indefinite" />
      </circle>
    </g>

    <!-- Pulsing dots -->
    <circle cx="40" cy="25" r="2" fill="#fff">
      <animate attributeName="r" values="2;3;2" dur="2s" repeatCount="indefinite" />
      <animate attributeName="opacity" values="1;0.5;1" dur="2s" repeatCount="indefinite" />
    </circle>
    <circle cx="55" cy="40" r="2" fill="#fff">
      <animate attributeName="r" values="2;3;2" dur="2s" repeatCount="indefinite" begin="0.5s" />
      <animate attributeName="opacity" values="1;0.5;1" dur="2s" repeatCount="indefinite" begin="0.5s" />
    </circle>
    <circle cx="40" cy="55" r="2" fill="#fff">
      <animate attributeName="r" values="2;3;2" dur="2s" repeatCount="indefinite" begin="1s" />
      <animate attributeName="opacity" values="1;0.5;1" dur="2s" repeatCount="indefinite" begin="1s" />
    </circle>
    <circle cx="25" cy="40" r="2" fill="#fff">
      <animate attributeName="r" values="2;3;2" dur="2s" repeatCount="indefinite" begin="1.5s" />
      <animate attributeName="opacity" values="1;0.5;1" dur="2s" repeatCount="indefinite" begin="1.5s" />
    </circle>
  </g>

  <!-- Definitions -->
  <defs>
    <linearGradient id="gradient" x1="20" y1="15" x2="60" y2="65">
      <stop offset="0%" stop-color="#a5b4fc" />
      <stop offset="100%" stop-color="#6366f1" />
    </linearGradient>
    <filter id="glow" x="-20%" y="-20%" width="140%" height="140%">
      <feGaussianBlur stdDeviation="2" result="glow" />
      <feMerge>
        <feMergeNode in="glow" />
        <feMergeNode in="SourceGraphic" />
      </feMerge>
    </filter>
  </defs>
</svg> 