<svg xmlns="http://www.w3.org/2000/svg" version="1.1" xmlns:xlink="http://www.w3.org/1999/xlink" xmlns:svgjs="http://svgjs.dev/svgjs" width="1440" height="560" preserveAspectRatio="none" viewBox="0 0 1440 560"><g mask="url(&quot;#SvgjsMask1006&quot;)" fill="none"><path d="M52.15 -35.52L117.1 1.98L117.1 76.98L52.15 114.48L-12.8 76.98L-12.8 1.98zM52.15 189.48L117.1 226.98L117.1 301.98L52.15 339.48L-12.8 301.98L-12.8 226.98zM117.1 301.98L182.06 339.48L182.06 414.48L117.1 451.98L52.15 414.48L52.15 339.48zM117.1 526.98L182.06 564.48L182.06 639.48L117.1 676.98L52.15 639.48L52.15 564.48zM247.01 526.98L311.96 564.48L311.96 639.48L247.01 676.98L182.06 639.48L182.06 564.48zM376.92 76.98L441.87 114.48L441.87 189.48L376.92 226.98L311.96 189.48L311.96 114.48zM311.96 414.48L376.92 451.98L376.92 526.98L311.96 564.48L247.01 526.98L247.01 451.98zM441.87 -35.52L506.83 1.98L506.83 76.98L441.87 114.48L376.92 76.98L376.92 1.98zM441.87 189.48L506.83 226.98L506.83 301.98L441.87 339.48L376.92 301.98L376.92 226.98zM506.83 301.98L571.78 339.48L571.78 414.48L506.83 451.98L441.87 414.48L441.87 339.48zM506.83 526.98L571.78 564.48L571.78 639.48L506.83 676.98L441.87 639.48L441.87 564.48zM636.73 76.98L701.69 114.48L701.69 189.48L636.73 226.98L571.78 189.48L571.78 114.48zM636.73 301.98L701.69 339.48L701.69 414.48L636.73 451.98L571.78 414.48L571.78 339.48zM636.73 526.98L701.69 564.48L701.69 639.48L636.73 676.98L571.78 639.48L571.78 564.48zM766.64 301.98L831.6 339.48L831.6 414.48L766.64 451.98L701.69 414.48L701.69 339.48zM766.64 526.98L831.6 564.48L831.6 639.48L766.64 676.98L701.69 639.48L701.69 564.48zM831.59 -35.52L896.55 1.98L896.55 76.98L831.59 114.48L766.64 76.98L766.64 1.98zM831.59 189.48L896.55 226.98L896.55 301.98L831.59 339.48L766.64 301.98L766.64 226.98zM896.55 301.98L961.5 339.48L961.5 414.48L896.55 451.98L831.59 414.48L831.59 339.48zM896.55 526.98L961.5 564.48L961.5 639.48L896.55 676.98L831.59 639.48L831.59 564.48zM961.5 -35.52L1026.46 1.98L1026.46 76.98L961.5 114.48L896.55 76.98L896.55 1.98zM1286.27 76.98L1351.22 114.48L1351.22 189.48L1286.27 226.98L1221.32 189.48L1221.32 114.48zM1221.32 189.48L1286.27 226.98L1286.27 301.98L1221.32 339.48L1156.36 301.98L1156.36 226.98zM1286.27 526.98L1351.22 564.48L1351.22 639.48L1286.27 676.98L1221.32 639.48L1221.32 564.48zM1351.23 189.48L1416.18 226.98L1416.18 301.98L1351.23 339.48L1286.27 301.98L1286.27 226.98zM1416.18 301.98L1481.13 339.48L1481.13 414.48L1416.18 451.98L1351.23 414.48L1351.23 339.48zM1481.13 -35.52L1546.09 1.98L1546.09 76.98L1481.13 114.48L1416.18 76.98L1416.18 1.98zM1481.13 189.48L1546.09 226.98L1546.09 301.98L1481.13 339.48L1416.18 301.98L1416.18 226.98z" stroke="#03305d" stroke-width="2"></path><path d="M44.65 -35.52 a7.5 7.5 0 1 0 15 0 a7.5 7.5 0 1 0 -15 0zM109.6 1.98 a7.5 7.5 0 1 0 15 0 a7.5 7.5 0 1 0 -15 0zM109.6 76.98 a7.5 7.5 0 1 0 15 0 a7.5 7.5 0 1 0 -15 0zM44.65 114.48 a7.5 7.5 0 1 0 15 0 a7.5 7.5 0 1 0 -15 0zM-20.3 76.98 a7.5 7.5 0 1 0 15 0 a7.5 7.5 0 1 0 -15 0zM-20.3 1.98 a7.5 7.5 0 1 0 15 0 a7.5 7.5 0 1 0 -15 0zM44.65 189.48 a7.5 7.5 0 1 0 15 0 a7.5 7.5 0 1 0 -15 0zM109.6 226.98 a7.5 7.5 0 1 0 15 0 a7.5 7.5 0 1 0 -15 0zM109.6 301.98 a7.5 7.5 0 1 0 15 0 a7.5 7.5 0 1 0 -15 0zM44.65 339.48 a7.5 7.5 0 1 0 15 0 a7.5 7.5 0 1 0 -15 0zM-20.3 301.98 a7.5 7.5 0 1 0 15 0 a7.5 7.5 0 1 0 -15 0zM-20.3 226.98 a7.5 7.5 0 1 0 15 0 a7.5 7.5 0 1 0 -15 0zM174.56 339.48 a7.5 7.5 0 1 0 15 0 a7.5 7.5 0 1 0 -15 0zM174.56 414.48 a7.5 7.5 0 1 0 15 0 a7.5 7.5 0 1 0 -15 0zM109.6 451.98 a7.5 7.5 0 1 0 15 0 a7.5 7.5 0 1 0 -15 0zM44.65 414.48 a7.5 7.5 0 1 0 15 0 a7.5 7.5 0 1 0 -15 0zM109.6 526.98 a7.5 7.5 0 1 0 15 0 a7.5 7.5 0 1 0 -15 0zM174.56 564.48 a7.5 7.5 0 1 0 15 0 a7.5 7.5 0 1 0 -15 0zM174.56 639.48 a7.5 7.5 0 1 0 15 0 a7.5 7.5 0 1 0 -15 0zM109.6 676.98 a7.5 7.5 0 1 0 15 0 a7.5 7.5 0 1 0 -15 0zM44.65 639.48 a7.5 7.5 0 1 0 15 0 a7.5 7.5 0 1 0 -15 0zM44.65 564.48 a7.5 7.5 0 1 0 15 0 a7.5 7.5 0 1 0 -15 0zM239.51 526.98 a7.5 7.5 0 1 0 15 0 a7.5 7.5 0 1 0 -15 0zM304.46 564.48 a7.5 7.5 0 1 0 15 0 a7.5 7.5 0 1 0 -15 0zM304.46 639.48 a7.5 7.5 0 1 0 15 0 a7.5 7.5 0 1 0 -15 0zM239.51 676.98 a7.5 7.5 0 1 0 15 0 a7.5 7.5 0 1 0 -15 0zM369.42 76.98 a7.5 7.5 0 1 0 15 0 a7.5 7.5 0 1 0 -15 0zM434.37 114.48 a7.5 7.5 0 1 0 15 0 a7.5 7.5 0 1 0 -15 0zM434.37 189.48 a7.5 7.5 0 1 0 15 0 a7.5 7.5 0 1 0 -15 0zM369.42 226.98 a7.5 7.5 0 1 0 15 0 a7.5 7.5 0 1 0 -15 0zM304.46 189.48 a7.5 7.5 0 1 0 15 0 a7.5 7.5 0 1 0 -15 0zM304.46 114.48 a7.5 7.5 0 1 0 15 0 a7.5 7.5 0 1 0 -15 0zM304.46 414.48 a7.5 7.5 0 1 0 15 0 a7.5 7.5 0 1 0 -15 0zM369.42 451.98 a7.5 7.5 0 1 0 15 0 a7.5 7.5 0 1 0 -15 0zM369.42 526.98 a7.5 7.5 0 1 0 15 0 a7.5 7.5 0 1 0 -15 0zM239.51 451.98 a7.5 7.5 0 1 0 15 0 a7.5 7.5 0 1 0 -15 0zM434.37 -35.52 a7.5 7.5 0 1 0 15 0 a7.5 7.5 0 1 0 -15 0zM499.33 1.98 a7.5 7.5 0 1 0 15 0 a7.5 7.5 0 1 0 -15 0zM499.33 76.98 a7.5 7.5 0 1 0 15 0 a7.5 7.5 0 1 0 -15 0zM369.42 1.98 a7.5 7.5 0 1 0 15 0 a7.5 7.5 0 1 0 -15 0zM499.33 226.98 a7.5 7.5 0 1 0 15 0 a7.5 7.5 0 1 0 -15 0zM499.33 301.98 a7.5 7.5 0 1 0 15 0 a7.5 7.5 0 1 0 -15 0zM434.37 339.48 a7.5 7.5 0 1 0 15 0 a7.5 7.5 0 1 0 -15 0zM369.42 301.98 a7.5 7.5 0 1 0 15 0 a7.5 7.5 0 1 0 -15 0zM564.28 339.48 a7.5 7.5 0 1 0 15 0 a7.5 7.5 0 1 0 -15 0zM564.28 414.48 a7.5 7.5 0 1 0 15 0 a7.5 7.5 0 1 0 -15 0zM499.33 451.98 a7.5 7.5 0 1 0 15 0 a7.5 7.5 0 1 0 -15 0zM434.37 414.48 a7.5 7.5 0 1 0 15 0 a7.5 7.5 0 1 0 -15 0zM499.33 526.98 a7.5 7.5 0 1 0 15 0 a7.5 7.5 0 1 0 -15 0zM564.28 564.48 a7.5 7.5 0 1 0 15 0 a7.5 7.5 0 1 0 -15 0zM564.28 639.48 a7.5 7.5 0 1 0 15 0 a7.5 7.5 0 1 0 -15 0zM499.33 676.98 a7.5 7.5 0 1 0 15 0 a7.5 7.5 0 1 0 -15 0zM434.37 639.48 a7.5 7.5 0 1 0 15 0 a7.5 7.5 0 1 0 -15 0zM434.37 564.48 a7.5 7.5 0 1 0 15 0 a7.5 7.5 0 1 0 -15 0zM629.23 76.98 a7.5 7.5 0 1 0 15 0 a7.5 7.5 0 1 0 -15 0zM694.19 114.48 a7.5 7.5 0 1 0 15 0 a7.5 7.5 0 1 0 -15 0zM694.19 189.48 a7.5 7.5 0 1 0 15 0 a7.5 7.5 0 1 0 -15 0zM629.23 226.98 a7.5 7.5 0 1 0 15 0 a7.5 7.5 0 1 0 -15 0zM564.28 189.48 a7.5 7.5 0 1 0 15 0 a7.5 7.5 0 1 0 -15 0zM564.28 114.48 a7.5 7.5 0 1 0 15 0 a7.5 7.5 0 1 0 -15 0zM629.23 301.98 a7.5 7.5 0 1 0 15 0 a7.5 7.5 0 1 0 -15 0zM694.19 339.48 a7.5 7.5 0 1 0 15 0 a7.5 7.5 0 1 0 -15 0zM694.19 414.48 a7.5 7.5 0 1 0 15 0 a7.5 7.5 0 1 0 -15 0zM629.23 451.98 a7.5 7.5 0 1 0 15 0 a7.5 7.5 0 1 0 -15 0zM629.23 526.98 a7.5 7.5 0 1 0 15 0 a7.5 7.5 0 1 0 -15 0zM694.19 564.48 a7.5 7.5 0 1 0 15 0 a7.5 7.5 0 1 0 -15 0zM694.19 639.48 a7.5 7.5 0 1 0 15 0 a7.5 7.5 0 1 0 -15 0zM629.23 676.98 a7.5 7.5 0 1 0 15 0 a7.5 7.5 0 1 0 -15 0zM759.14 301.98 a7.5 7.5 0 1 0 15 0 a7.5 7.5 0 1 0 -15 0zM824.1 339.48 a7.5 7.5 0 1 0 15 0 a7.5 7.5 0 1 0 -15 0zM824.1 414.48 a7.5 7.5 0 1 0 15 0 a7.5 7.5 0 1 0 -15 0zM759.14 451.98 a7.5 7.5 0 1 0 15 0 a7.5 7.5 0 1 0 -15 0zM759.14 526.98 a7.5 7.5 0 1 0 15 0 a7.5 7.5 0 1 0 -15 0zM824.1 564.48 a7.5 7.5 0 1 0 15 0 a7.5 7.5 0 1 0 -15 0zM824.1 639.48 a7.5 7.5 0 1 0 15 0 a7.5 7.5 0 1 0 -15 0zM759.14 676.98 a7.5 7.5 0 1 0 15 0 a7.5 7.5 0 1 0 -15 0zM824.09 -35.52 a7.5 7.5 0 1 0 15 0 a7.5 7.5 0 1 0 -15 0zM889.05 1.98 a7.5 7.5 0 1 0 15 0 a7.5 7.5 0 1 0 -15 0zM889.05 76.98 a7.5 7.5 0 1 0 15 0 a7.5 7.5 0 1 0 -15 0zM824.09 114.48 a7.5 7.5 0 1 0 15 0 a7.5 7.5 0 1 0 -15 0zM759.14 76.98 a7.5 7.5 0 1 0 15 0 a7.5 7.5 0 1 0 -15 0zM759.14 1.98 a7.5 7.5 0 1 0 15 0 a7.5 7.5 0 1 0 -15 0zM824.09 189.48 a7.5 7.5 0 1 0 15 0 a7.5 7.5 0 1 0 -15 0zM889.05 226.98 a7.5 7.5 0 1 0 15 0 a7.5 7.5 0 1 0 -15 0zM889.05 301.98 a7.5 7.5 0 1 0 15 0 a7.5 7.5 0 1 0 -15 0zM824.09 339.48 a7.5 7.5 0 1 0 15 0 a7.5 7.5 0 1 0 -15 0zM759.14 226.98 a7.5 7.5 0 1 0 15 0 a7.5 7.5 0 1 0 -15 0zM954 339.48 a7.5 7.5 0 1 0 15 0 a7.5 7.5 0 1 0 -15 0zM954 414.48 a7.5 7.5 0 1 0 15 0 a7.5 7.5 0 1 0 -15 0zM889.05 451.98 a7.5 7.5 0 1 0 15 0 a7.5 7.5 0 1 0 -15 0zM824.09 414.48 a7.5 7.5 0 1 0 15 0 a7.5 7.5 0 1 0 -15 0zM889.05 526.98 a7.5 7.5 0 1 0 15 0 a7.5 7.5 0 1 0 -15 0zM954 564.48 a7.5 7.5 0 1 0 15 0 a7.5 7.5 0 1 0 -15 0zM954 639.48 a7.5 7.5 0 1 0 15 0 a7.5 7.5 0 1 0 -15 0zM889.05 676.98 a7.5 7.5 0 1 0 15 0 a7.5 7.5 0 1 0 -15 0zM824.09 639.48 a7.5 7.5 0 1 0 15 0 a7.5 7.5 0 1 0 -15 0zM824.09 564.48 a7.5 7.5 0 1 0 15 0 a7.5 7.5 0 1 0 -15 0zM954 -35.52 a7.5 7.5 0 1 0 15 0 a7.5 7.5 0 1 0 -15 0zM1018.96 1.98 a7.5 7.5 0 1 0 15 0 a7.5 7.5 0 1 0 -15 0zM1018.96 76.98 a7.5 7.5 0 1 0 15 0 a7.5 7.5 0 1 0 -15 0zM954 114.48 a7.5 7.5 0 1 0 15 0 a7.5 7.5 0 1 0 -15 0zM1278.77 76.98 a7.5 7.5 0 1 0 15 0 a7.5 7.5 0 1 0 -15 0zM1343.72 114.48 a7.5 7.5 0 1 0 15 0 a7.5 7.5 0 1 0 -15 0zM1343.72 189.48 a7.5 7.5 0 1 0 15 0 a7.5 7.5 0 1 0 -15 0zM1278.77 226.98 a7.5 7.5 0 1 0 15 0 a7.5 7.5 0 1 0 -15 0zM1213.82 189.48 a7.5 7.5 0 1 0 15 0 a7.5 7.5 0 1 0 -15 0zM1213.82 114.48 a7.5 7.5 0 1 0 15 0 a7.5 7.5 0 1 0 -15 0zM1278.77 301.98 a7.5 7.5 0 1 0 15 0 a7.5 7.5 0 1 0 -15 0zM1213.82 339.48 a7.5 7.5 0 1 0 15 0 a7.5 7.5 0 1 0 -15 0zM1148.86 301.98 a7.5 7.5 0 1 0 15 0 a7.5 7.5 0 1 0 -15 0zM1148.86 226.98 a7.5 7.5 0 1 0 15 0 a7.5 7.5 0 1 0 -15 0zM1278.77 526.98 a7.5 7.5 0 1 0 15 0 a7.5 7.5 0 1 0 -15 0zM1343.72 564.48 a7.5 7.5 0 1 0 15 0 a7.5 7.5 0 1 0 -15 0zM1343.72 639.48 a7.5 7.5 0 1 0 15 0 a7.5 7.5 0 1 0 -15 0zM1278.77 676.98 a7.5 7.5 0 1 0 15 0 a7.5 7.5 0 1 0 -15 0zM1213.82 639.48 a7.5 7.5 0 1 0 15 0 a7.5 7.5 0 1 0 -15 0zM1213.82 564.48 a7.5 7.5 0 1 0 15 0 a7.5 7.5 0 1 0 -15 0zM1343.73 189.48 a7.5 7.5 0 1 0 15 0 a7.5 7.5 0 1 0 -15 0zM1408.68 226.98 a7.5 7.5 0 1 0 15 0 a7.5 7.5 0 1 0 -15 0zM1408.68 301.98 a7.5 7.5 0 1 0 15 0 a7.5 7.5 0 1 0 -15 0zM1343.73 339.48 a7.5 7.5 0 1 0 15 0 a7.5 7.5 0 1 0 -15 0zM1473.63 339.48 a7.5 7.5 0 1 0 15 0 a7.5 7.5 0 1 0 -15 0zM1473.63 414.48 a7.5 7.5 0 1 0 15 0 a7.5 7.5 0 1 0 -15 0zM1408.68 451.98 a7.5 7.5 0 1 0 15 0 a7.5 7.5 0 1 0 -15 0zM1343.73 414.48 a7.5 7.5 0 1 0 15 0 a7.5 7.5 0 1 0 -15 0zM1473.63 -35.52 a7.5 7.5 0 1 0 15 0 a7.5 7.5 0 1 0 -15 0zM1538.59 1.98 a7.5 7.5 0 1 0 15 0 a7.5 7.5 0 1 0 -15 0zM1538.59 76.98 a7.5 7.5 0 1 0 15 0 a7.5 7.5 0 1 0 -15 0zM1473.63 114.48 a7.5 7.5 0 1 0 15 0 a7.5 7.5 0 1 0 -15 0zM1408.68 76.98 a7.5 7.5 0 1 0 15 0 a7.5 7.5 0 1 0 -15 0zM1408.68 1.98 a7.5 7.5 0 1 0 15 0 a7.5 7.5 0 1 0 -15 0zM1473.63 189.48 a7.5 7.5 0 1 0 15 0 a7.5 7.5 0 1 0 -15 0zM1538.59 226.98 a7.5 7.5 0 1 0 15 0 a7.5 7.5 0 1 0 -15 0zM1538.59 301.98 a7.5 7.5 0 1 0 15 0 a7.5 7.5 0 1 0 -15 0z" fill="#03305d"></path><path d="M133.97 42.7L177.27 67.7L177.27 117.7L133.97 142.7L90.67 117.7L90.67 67.7zM90.67 117.7L133.97 142.7L133.97 192.7L90.67 217.7L47.36 192.7L47.36 142.7zM133.97 342.7L177.27 367.7L177.27 417.7L133.97 442.7L90.67 417.7L90.67 367.7zM220.57 192.7L263.88 217.7L263.88 267.7L220.57 292.7L177.27 267.7L177.27 217.7zM177.27 417.7L220.57 442.7L220.57 492.7L177.27 517.7L133.97 492.7L133.97 442.7zM307.18 192.7L350.48 217.7L350.48 267.7L307.18 292.7L263.88 267.7L263.88 217.7zM350.48 117.7L393.78 142.7L393.78 192.7L350.48 217.7L307.18 192.7L307.18 142.7zM393.78 192.7L437.09 217.7L437.09 267.7L393.78 292.7L350.48 267.7L350.48 217.7zM350.48 267.7L393.78 292.7L393.78 342.7L350.48 367.7L307.18 342.7L307.18 292.7zM393.78 342.7L437.09 367.7L437.09 417.7L393.78 442.7L350.48 417.7L350.48 367.7zM437.09 117.7L480.39 142.7L480.39 192.7L437.09 217.7L393.78 192.7L393.78 142.7zM437.09 267.7L480.39 292.7L480.39 342.7L437.09 367.7L393.78 342.7L393.78 292.7zM523.69 -32.3L566.99 -7.3L566.99 42.7L523.69 67.7L480.39 42.7L480.39 -7.3zM566.99 342.7L610.29 367.7L610.29 417.7L566.99 442.7L523.69 417.7L523.69 367.7zM610.29 117.7L653.6 142.7L653.6 192.7L610.29 217.7L566.99 192.7L566.99 142.7zM653.6 192.7L696.9 217.7L696.9 267.7L653.6 292.7L610.29 267.7L610.29 217.7zM610.29 267.7L653.6 292.7L653.6 342.7L610.29 367.7L566.99 342.7L566.99 292.7zM696.9 -32.3L740.2 -7.3L740.2 42.7L696.9 67.7L653.6 42.7L653.6 -7.3zM826.81 42.7L870.11 67.7L870.11 117.7L826.81 142.7L783.5 117.7L783.5 67.7zM783.5 117.7L826.81 142.7L826.81 192.7L783.5 217.7L740.2 192.7L740.2 142.7zM826.81 492.7L870.11 517.7L870.11 567.7L826.81 592.7L783.5 567.7L783.5 517.7zM956.72 117.7L1000.02 142.7L1000.02 192.7L956.72 217.7L913.41 192.7L913.41 142.7zM956.72 417.7L1000.02 442.7L1000.02 492.7L956.72 517.7L913.41 492.7L913.41 442.7zM1086.62 192.7L1129.92 217.7L1129.92 267.7L1086.62 292.7L1043.32 267.7L1043.32 217.7zM1086.62 342.7L1129.92 367.7L1129.92 417.7L1086.62 442.7L1043.32 417.7L1043.32 367.7zM1086.62 492.7L1129.92 517.7L1129.92 567.7L1086.62 592.7L1043.32 567.7L1043.32 517.7zM1129.92 267.7L1173.23 292.7L1173.23 342.7L1129.92 367.7L1086.62 342.7L1086.62 292.7zM1129.92 417.7L1173.23 442.7L1173.23 492.7L1129.92 517.7L1086.62 492.7L1086.62 442.7zM1216.53 117.7L1259.83 142.7L1259.83 192.7L1216.53 217.7L1173.23 192.7L1173.23 142.7zM1216.53 417.7L1259.83 442.7L1259.83 492.7L1216.53 517.7L1173.23 492.7L1173.23 442.7zM1259.83 492.7L1303.13 517.7L1303.13 567.7L1259.83 592.7L1216.53 567.7L1216.53 517.7zM1346.44 42.7L1389.74 67.7L1389.74 117.7L1346.44 142.7L1303.13 117.7L1303.13 67.7zM1303.13 117.7L1346.44 142.7L1346.44 192.7L1303.13 217.7L1259.83 192.7L1259.83 142.7zM1346.44 342.7L1389.74 367.7L1389.74 417.7L1346.44 442.7L1303.13 417.7L1303.13 367.7zM1433.04 42.7L1476.35 67.7L1476.35 117.7L1433.04 142.7L1389.74 117.7L1389.74 67.7zM1389.74 267.7L1433.04 292.7L1433.04 342.7L1389.74 367.7L1346.44 342.7L1346.44 292.7zM1433.04 492.7L1476.35 517.7L1476.35 567.7L1433.04 592.7L1389.74 567.7L1389.74 517.7z" stroke="rgba(6, 80, 156, 0.93)" stroke-width="2"></path></g><defs><mask id="SvgjsMask1006"><rect width="1440" height="560" fill="#ffffff"></rect></mask></defs></svg>