<svg id="visual" viewBox="0 0 900 600" width="900" height="600" xmlns="http://www.w3.org/2000/svg" xmlns:xlink="http://www.w3.org/1999/xlink" version="1.1"><rect x="0" y="0" width="900" height="600" fill="#FFFFFF"></rect><path d="M0 423L113 415L225 476L338 419L450 457L563 431L675 448L788 412L900 407L900 601L788 601L675 601L563 601L450 601L338 601L225 601L113 601L0 601Z" fill="#0a98f5"></path><path d="M0 455L113 459L225 453L338 461L450 485L563 440L675 449L788 470L900 446L900 601L788 601L675 601L563 601L450 601L338 601L225 601L113 601L0 601Z" fill="#0e81d9"></path><path d="M0 507L113 478L225 500L338 498L450 524L563 524L675 499L788 511L900 522L900 601L788 601L675 601L563 601L450 601L338 601L225 601L113 601L0 601Z" fill="#0d6bbd"></path><path d="M0 527L113 543L225 511L338 517L450 538L563 512L675 528L788 530L900 521L900 601L788 601L675 601L563 601L450 601L338 601L225 601L113 601L0 601Z" fill="#0756a2"></path><path d="M0 571L113 541L225 572L338 569L450 566L563 568L675 548L788 551L900 550L900 601L788 601L675 601L563 601L450 601L338 601L225 601L113 601L0 601Z" fill="#004287"></path></svg>