<svg id="visual" viewBox="0 0 900 600" width="900" height="600" xmlns="http://www.w3.org/2000/svg" xmlns:xlink="http://www.w3.org/1999/xlink" version="1.1"><g stroke-width="1" stroke-linejoin="bevel"><path d="M495 310L478 385L581 385Z" fill="#c2d5eb" stroke="#c2d5eb"></path><path d="M581 385L617 298L495 310Z" fill="#c8d9ed" stroke="#c8d9ed"></path><path d="M495 310L407 400L478 385Z" fill="#e1eaf5" stroke="#e1eaf5"></path><path d="M478 385L574 521L581 385Z" fill="#f9fbfd" stroke="#f9fbfd"></path><path d="M581 385L678 373L617 298Z" fill="#c8d9ed" stroke="#c8d9ed"></path><path d="M614 193L481 199L495 310Z" fill="#ffffff" stroke="#ffffff"></path><path d="M495 310L383 279L407 400Z" fill="#edf2f9" stroke="#edf2f9"></path><path d="M481 199L383 279L495 310Z" fill="#c8d9ed" stroke="#c8d9ed"></path><path d="M407 400L476 517L478 385Z" fill="#edf2f9" stroke="#edf2f9"></path><path d="M581 385L711 509L678 373Z" fill="#c2d5eb" stroke="#c2d5eb"></path><path d="M476 517L574 521L478 385Z" fill="#ceddef" stroke="#ceddef"></path><path d="M716 200L614 193L617 298Z" fill="#f9fbfd" stroke="#f9fbfd"></path><path d="M617 298L614 193L495 310Z" fill="#e7eef7" stroke="#e7eef7"></path><path d="M407 400L400 495L476 517Z" fill="#e1eaf5" stroke="#e1eaf5"></path><path d="M284 489L400 495L407 400Z" fill="#ffffff" stroke="#ffffff"></path><path d="M678 373L718 315L617 298Z" fill="#f9fbfd" stroke="#f9fbfd"></path><path d="M511 82L425 189L481 199Z" fill="#d5e2f1" stroke="#d5e2f1"></path><path d="M481 199L425 189L383 279Z" fill="#e1eaf5" stroke="#e1eaf5"></path><path d="M574 521L711 509L581 385Z" fill="#ceddef" stroke="#ceddef"></path><path d="M678 373L787 398L718 315Z" fill="#e7eef7" stroke="#e7eef7"></path><path d="M323 209L292 308L383 279Z" fill="#f9fbfd" stroke="#f9fbfd"></path><path d="M383 279L292 308L407 400Z" fill="#edf2f9" stroke="#edf2f9"></path><path d="M476 517L518 600L574 521Z" fill="#f9fbfd" stroke="#f9fbfd"></path><path d="M574 521L621 600L711 509Z" fill="#c8d9ed" stroke="#c8d9ed"></path><path d="M415 600L518 600L476 517Z" fill="#e7eef7" stroke="#e7eef7"></path><path d="M718 315L716 200L617 298Z" fill="#ffffff" stroke="#ffffff"></path><path d="M425 189L323 209L383 279Z" fill="#d5e2f1" stroke="#d5e2f1"></path><path d="M292 308L273 374L407 400Z" fill="#ceddef" stroke="#ceddef"></path><path d="M518 600L621 600L574 521Z" fill="#dbe6f3" stroke="#dbe6f3"></path><path d="M711 509L787 398L678 373Z" fill="#c8d9ed" stroke="#c8d9ed"></path><path d="M718 315L790 315L716 200Z" fill="#d5e2f1" stroke="#d5e2f1"></path><path d="M787 398L790 315L718 315Z" fill="#ffffff" stroke="#ffffff"></path><path d="M276 600L415 600L400 495Z" fill="#f9fbfd" stroke="#f9fbfd"></path><path d="M400 495L415 600L476 517Z" fill="#ffffff" stroke="#ffffff"></path><path d="M717 77L581 87L614 193Z" fill="#d5e2f1" stroke="#d5e2f1"></path><path d="M614 193L581 87L481 199Z" fill="#ceddef" stroke="#ceddef"></path><path d="M425 189L399 99L323 209Z" fill="#dbe6f3" stroke="#dbe6f3"></path><path d="M581 87L511 82L481 199Z" fill="#c8d9ed" stroke="#c8d9ed"></path><path d="M273 374L284 489L407 400Z" fill="#e1eaf5" stroke="#e1eaf5"></path><path d="M511 82L399 99L425 189Z" fill="#c8d9ed" stroke="#c8d9ed"></path><path d="M790 315L789 198L716 200Z" fill="#e7eef7" stroke="#e7eef7"></path><path d="M716 200L717 77L614 193Z" fill="#ffffff" stroke="#ffffff"></path><path d="M621 600L726 600L711 509Z" fill="#e1eaf5" stroke="#e1eaf5"></path><path d="M711 509L817 486L787 398Z" fill="#edf2f9" stroke="#edf2f9"></path><path d="M802 600L817 486L711 509Z" fill="#e7eef7" stroke="#e7eef7"></path><path d="M787 398L900 423L790 315Z" fill="#c2d5eb" stroke="#c2d5eb"></path><path d="M790 315L900 290L789 198Z" fill="#e1eaf5" stroke="#e1eaf5"></path><path d="M210 194L203 293L292 308Z" fill="#f9fbfd" stroke="#f9fbfd"></path><path d="M292 308L203 293L273 374Z" fill="#f9fbfd" stroke="#f9fbfd"></path><path d="M273 374L184 404L284 489Z" fill="#c2d5eb" stroke="#c2d5eb"></path><path d="M210 194L292 308L323 209Z" fill="#f3f7fb" stroke="#f3f7fb"></path><path d="M789 198L717 77L716 200Z" fill="#c8d9ed" stroke="#c8d9ed"></path><path d="M581 0L510 0L511 82Z" fill="#e1eaf5" stroke="#e1eaf5"></path><path d="M203 293L184 404L273 374Z" fill="#edf2f9" stroke="#edf2f9"></path><path d="M284 489L276 600L400 495Z" fill="#c2d5eb" stroke="#c2d5eb"></path><path d="M216 600L276 600L284 489Z" fill="#ffffff" stroke="#ffffff"></path><path d="M581 0L511 82L581 87Z" fill="#d5e2f1" stroke="#d5e2f1"></path><path d="M511 82L397 0L399 99Z" fill="#e1eaf5" stroke="#e1eaf5"></path><path d="M222 105L210 194L323 209Z" fill="#e7eef7" stroke="#e7eef7"></path><path d="M203 293L115 303L184 404Z" fill="#ffffff" stroke="#ffffff"></path><path d="M291 80L323 209L399 99Z" fill="#dbe6f3" stroke="#dbe6f3"></path><path d="M717 77L581 0L581 87Z" fill="#e1eaf5" stroke="#e1eaf5"></path><path d="M184 404L195 494L284 489Z" fill="#d5e2f1" stroke="#d5e2f1"></path><path d="M726 600L802 600L711 509Z" fill="#f9fbfd" stroke="#f9fbfd"></path><path d="M323 0L291 80L399 99Z" fill="#ceddef" stroke="#ceddef"></path><path d="M900 479L900 423L817 486Z" fill="#e1eaf5" stroke="#e1eaf5"></path><path d="M817 486L900 423L787 398Z" fill="#e7eef7" stroke="#e7eef7"></path><path d="M900 423L900 290L790 315Z" fill="#ffffff" stroke="#ffffff"></path><path d="M789 198L791 77L717 77Z" fill="#e7eef7" stroke="#e7eef7"></path><path d="M510 0L397 0L511 82Z" fill="#d5e2f1" stroke="#d5e2f1"></path><path d="M900 103L791 77L789 198Z" fill="#d5e2f1" stroke="#d5e2f1"></path><path d="M717 77L721 0L581 0Z" fill="#e1eaf5" stroke="#e1eaf5"></path><path d="M900 600L900 479L817 486Z" fill="#edf2f9" stroke="#edf2f9"></path><path d="M195 494L216 600L284 489Z" fill="#e1eaf5" stroke="#e1eaf5"></path><path d="M226 0L222 105L291 80Z" fill="#f3f7fb" stroke="#f3f7fb"></path><path d="M291 80L222 105L323 209Z" fill="#c8d9ed" stroke="#c8d9ed"></path><path d="M900 290L900 194L789 198Z" fill="#ffffff" stroke="#ffffff"></path><path d="M821 0L721 0L791 77Z" fill="#c8d9ed" stroke="#c8d9ed"></path><path d="M791 77L721 0L717 77Z" fill="#e7eef7" stroke="#e7eef7"></path><path d="M397 0L323 0L399 99Z" fill="#ffffff" stroke="#ffffff"></path><path d="M84 202L115 303L210 194Z" fill="#e1eaf5" stroke="#e1eaf5"></path><path d="M210 194L115 303L203 293Z" fill="#ffffff" stroke="#ffffff"></path><path d="M184 404L102 497L195 494Z" fill="#e7eef7" stroke="#e7eef7"></path><path d="M195 494L102 497L216 600Z" fill="#ceddef" stroke="#ceddef"></path><path d="M802 600L900 600L817 486Z" fill="#e1eaf5" stroke="#e1eaf5"></path><path d="M115 303L88 408L184 404Z" fill="#c8d9ed" stroke="#c8d9ed"></path><path d="M900 194L900 103L789 198Z" fill="#e7eef7" stroke="#e7eef7"></path><path d="M88 408L102 497L184 404Z" fill="#ceddef" stroke="#ceddef"></path><path d="M900 103L821 0L791 77Z" fill="#ffffff" stroke="#ffffff"></path><path d="M323 0L226 0L291 80Z" fill="#e7eef7" stroke="#e7eef7"></path><path d="M98 101L84 202L210 194Z" fill="#c8d9ed" stroke="#c8d9ed"></path><path d="M98 101L210 194L222 105Z" fill="#d5e2f1" stroke="#d5e2f1"></path><path d="M0 305L0 407L88 408Z" fill="#e7eef7" stroke="#e7eef7"></path><path d="M226 0L98 101L222 105Z" fill="#c8d9ed" stroke="#c8d9ed"></path><path d="M0 501L102 497L88 408Z" fill="#dbe6f3" stroke="#dbe6f3"></path><path d="M0 501L85 600L102 497Z" fill="#edf2f9" stroke="#edf2f9"></path><path d="M102 497L85 600L216 600Z" fill="#c8d9ed" stroke="#c8d9ed"></path><path d="M900 103L900 0L821 0Z" fill="#e1eaf5" stroke="#e1eaf5"></path><path d="M0 305L88 408L115 303Z" fill="#ffffff" stroke="#ffffff"></path><path d="M0 305L115 303L84 202Z" fill="#dbe6f3" stroke="#dbe6f3"></path><path d="M0 206L0 305L84 202Z" fill="#e1eaf5" stroke="#e1eaf5"></path><path d="M0 407L0 501L88 408Z" fill="#d5e2f1" stroke="#d5e2f1"></path><path d="M0 115L0 206L84 202Z" fill="#edf2f9" stroke="#edf2f9"></path><path d="M226 0L95 0L98 101Z" fill="#e7eef7" stroke="#e7eef7"></path><path d="M98 101L0 115L84 202Z" fill="#e1eaf5" stroke="#e1eaf5"></path><path d="M0 0L0 115L98 101Z" fill="#f9fbfd" stroke="#f9fbfd"></path><path d="M0 501L0 600L85 600Z" fill="#e7eef7" stroke="#e7eef7"></path><path d="M95 0L0 0L98 101Z" fill="#c8d9ed" stroke="#c8d9ed"></path></g></svg>