<svg id="Layer_1" data-name="Layer 1" xmlns="http://www.w3.org/2000/svg" viewBox="0 0 51 51"><defs><style>.cls-1,.cls-4{fill:#fff;}.cls-1{opacity:0.75;}.cls-2{fill:#544c45;}.cls-3{fill:#f8702d;}</style></defs><title>ts_bottom_03</title><circle class="cls-1" cx="25.5" cy="25.64" r="25.5"/><circle class="cls-2" cx="25.5" cy="25.64" r="21.29"/><path class="cls-3" d="M23.63,18.15a1.64,1.64,0,0,0,1.22-.54,5.16,5.16,0,0,0,1.39-2.17A1.69,1.69,0,0,0,26.31,14a1,1,0,0,0-1.05.17,5.43,5.43,0,0,0-1.9,3A0.89,0.89,0,0,0,23.63,18.15Z"/><path class="cls-3" d="M21.9,19.88a3.15,3.15,0,0,0,1-2.51,0.65,0.65,0,0,0-.58-0.07A4.87,4.87,0,0,0,20,19.4a1.88,1.88,0,0,0-.37,1.76A2.75,2.75,0,0,0,21.9,19.88Z"/><path class="cls-3" d="M24.82,18.35c-1,.15-2.15,1.87-2.24,2.95a0.85,0.85,0,0,0,.3.91c0.81,0.33,1.76-1,2-1.39S26.26,18.14,24.82,18.35Z"/><path class="cls-3" d="M20.07,24.11a2.89,2.89,0,0,0,1.49-1.05,2.46,2.46,0,0,0,.71-1.69,0.54,0.54,0,0,0-.68-0.47,3.21,3.21,0,0,0-2.27,2.27C19.19,23.85,19.43,24.23,20.07,24.11Z"/><path class="cls-3" d="M17.67,23.09A2.62,2.62,0,0,0,18.75,21,0.47,0.47,0,0,0,18.35,21a3.82,3.82,0,0,0-2,1.32c-0.48.53-1.07,1.31-.75,1.9A2.77,2.77,0,0,0,17.67,23.09Z"/><path class="cls-3" d="M24,22.69a2.32,2.32,0,0,0-1.76,2.41,1.23,1.23,0,0,0,.34.85c0.61,0.5,1.4-.11,1.8-0.64S25.36,22.61,24,22.69Z"/><path class="cls-3" d="M18.35,23.67a0.76,0.76,0,0,0-.81,0,4.29,4.29,0,0,0-2,2,1.08,1.08,0,0,0,0,.81,2,2,0,0,0,1.93-.75A2.25,2.25,0,0,0,18.35,23.67Z"/><path class="cls-3" d="M20.58,27a2.49,2.49,0,0,0,1.25-1.42c0.2-.79-0.21-1.31-0.95-1.19a2,2,0,0,0-1.59,1.69A0.85,0.85,0,0,0,20.58,27Z"/><path class="cls-3" d="M13.37,26a2.38,2.38,0,0,0,1.32-1.52,0.4,0.4,0,0,0-.34-0.1A5.06,5.06,0,0,0,11.64,26a1,1,0,0,0-.27.68A2.49,2.49,0,0,0,13.37,26Z"/><path class="cls-3" d="M18.14,27.63c0.47-.53.74-1.71-0.51-1.52a2.15,2.15,0,0,0-1.25.68A1.33,1.33,0,0,0,16,28.11C16.4,28.79,17.71,28.12,18.14,27.63Z"/><path class="cls-3" d="M14.48,27.16c0.3-.28.81-1-0.07-1a2.94,2.94,0,0,0-2.47,1.8c0.48,0.42,1.31.06,1.83-.24A4.06,4.06,0,0,0,14.48,27.16Z"/><path class="cls-3" d="M24.11,26.72a1.68,1.68,0,0,0-1.63,1.52c-0.07.8,0.56,1.91,1.32,1.83C24.72,30,25.17,27.1,24.11,26.72Z"/><path class="cls-3" d="M10.72,27.23a2.5,2.5,0,0,0-2,.58,1.77,1.77,0,0,0-1,1.15,2.39,2.39,0,0,0,1.8-.51A2.13,2.13,0,0,0,10.72,27.23Z"/><path class="cls-3" d="M21,27.63a1.35,1.35,0,0,0-1.22,1.83,1.56,1.56,0,0,0,1.32.88C22.33,30.26,22.73,27.44,21,27.63Z"/><path class="cls-3" d="M14.21,27.9a1.94,1.94,0,0,0-.91.37,0.94,0.94,0,0,0-.51.78,0.79,0.79,0,0,0,.95.41,2.14,2.14,0,0,0,1.05-.41,0.81,0.81,0,0,0,.47-0.95A1,1,0,0,0,14.21,27.9Z"/><path class="cls-3" d="M11.43,28.41a0.69,0.69,0,0,0-.75-0.17,2.91,2.91,0,0,0-1.19.37c-0.47.27-1.24,1.17,0,1.05a2.91,2.91,0,0,0,1.15-.41A1.05,1.05,0,0,0,11.43,28.41Z"/><path class="cls-3" d="M19.09,29.09a1.08,1.08,0,0,0-1.29-.44,1.22,1.22,0,0,0-1.08.95C16.5,31.2,19.65,30.62,19.09,29.09Z"/><path class="cls-3" d="M11.5,29.29a2.27,2.27,0,0,0-.88.3,0.76,0.76,0,0,0-.54.64,0.87,0.87,0,0,0,.91.24c0.45,0,1.6-.45,1.42-1A0.85,0.85,0,0,0,11.5,29.29Z"/><path class="cls-3" d="M21.09,31.26c-1.16.24-.71,2.23,0.17,2.57C23,34.52,22.83,30.9,21.09,31.26Z"/><path class="cls-3" d="M19.84,32.85a1.33,1.33,0,0,0-1.42-1.56,0.77,0.77,0,0,0-.81.58C17.36,33.12,19.45,33.9,19.84,32.85Z"/><path class="cls-3" d="M20.18,36.07c0.5-.15.1-1-0.1-1.32-0.35-.51-1-1.1-1.59-0.71a1.81,1.81,0,0,0,.75,1.69A1.3,1.3,0,0,0,20.18,36.07Z"/><path class="cls-3" d="M22.14,37.32a0.92,0.92,0,0,0,.44-0.91c0-.83-0.61-2-1.36-1.76a0.74,0.74,0,0,0-.47.61C20.59,36.21,21.36,37.57,22.14,37.32Z"/><path class="cls-3" d="M19.63,36.37a0.09,0.09,0,0,0-.07.1,1,1,0,0,0,0,.54A2.35,2.35,0,0,0,21,38.78,2.34,2.34,0,0,0,19.63,36.37Z"/><path class="cls-3" d="M21.56,37.83c-0.67.41,0.5,2.89,1.12,2.64a1.73,1.73,0,0,0-.1-1.59C22.51,38.71,21.94,37.6,21.56,37.83Z"/><ellipse class="cls-3" cx="29.65" cy="22.77" rx="2.21" ry="1.09" transform="translate(0.73 46.46) rotate(-76.84)"/><ellipse class="cls-3" cx="30.6" cy="17.07" rx="2.37" ry="1.11" transform="translate(5.49 41.51) rotate(-73.38)"/><ellipse class="cls-3" cx="31.7" cy="11.25" rx="2.49" ry="1.13" transform="translate(11.02 37.78) rotate(-71.61)"/><ellipse class="cls-3" cx="28.43" cy="13.12" rx="2.49" ry="0.98" transform="translate(3.61 32.21) rotate(-62.33)"/><ellipse class="cls-3" cx="27.44" cy="18.3" rx="2.28" ry="1" transform="translate(-1.51 34.11) rotate(-62.33)"/><ellipse class="cls-3" cx="26.74" cy="23.3" rx="2.01" ry="1.16" transform="matrix(0.36, -0.93, 0.93, 0.36, -4.59, 39.92)"/><ellipse class="cls-3" cx="23.81" cy="40.63" rx="0.61" ry="1.54" transform="translate(-10.03 7.88) rotate(-15.57)"/><ellipse class="cls-3" cx="23.63" cy="36.84" rx="0.77" ry="1.52" transform="matrix(0.99, -0.17, 0.17, 0.99, -5.94, 4.57)"/><ellipse class="cls-3" cx="23.7" cy="32.8" rx="0.91" ry="1.6" transform="translate(-0.28 0.2) rotate(-0.49)"/><ellipse class="cls-3" cx="32.25" cy="23.09" rx="2.29" ry="1.06" transform="translate(4.02 50.95) rotate(-80.23)"/><ellipse class="cls-3" cx="33.41" cy="17.15" rx="2.39" ry="1.11" transform="translate(10.84 47.16) rotate(-80.23)"/><ellipse class="cls-3" cx="34.54" cy="10.56" rx="2.55" ry="1.11" transform="translate(19.24 43.27) rotate(-81.93)"/><ellipse class="cls-4" cx="28.38" cy="43.64" rx="1.67" ry="0.56" transform="translate(-19.45 64.21) rotate(-80.23)"/><ellipse class="cls-4" cx="27.04" cy="43.01" rx="1.7" ry="0.65" transform="translate(-16.37 69.4) rotate(-89.15)"/><ellipse class="cls-4" cx="27.46" cy="38.54" rx="1.85" ry="0.77" transform="translate(-13.14 62.84) rotate(-85.42)"/><ellipse class="cls-4" cx="28.11" cy="33.71" rx="1.93" ry="0.93" transform="translate(-9.12 56.95) rotate(-82.15)"/><ellipse class="cls-4" cx="28.89" cy="28.22" rx="2.09" ry="1.05" transform="translate(-3.92 51.76) rotate(-79.99)"/><ellipse class="cls-4" cx="26.27" cy="28.21" rx="2.03" ry="1.03" transform="translate(-6.71 48.16) rotate(-78.22)"/><ellipse class="cls-4" cx="25.84" cy="33.28" rx="1.84" ry="0.94" transform="translate(-10.38 54.8) rotate(-82.88)"/><ellipse class="cls-4" cx="25.53" cy="37.69" rx="0.81" ry="1.81" transform="translate(-0.38 0.26) rotate(-0.57)"/><ellipse class="cls-4" cx="25.47" cy="41.97" rx="0.61" ry="1.65" transform="translate(-3.22 2.13) rotate(-4.51)"/><ellipse class="cls-4" cx="15.11" cy="30.23" rx="0.67" ry="1.1" transform="translate(-15.24 45.13) rotate(-89.59)"/><ellipse class="cls-4" cx="16.19" cy="32.11" rx="0.61" ry="1.09" transform="translate(-19.69 29.7) rotate(-59.41)"/><ellipse class="cls-4" cx="17.29" cy="34.03" rx="0.4" ry="1.09" transform="translate(-20.22 26.96) rotate(-52.39)"/><ellipse class="cls-4" cx="18.53" cy="36.17" rx="0.23" ry="1.21" transform="translate(-18.41 19.22) rotate(-38.22)"/><ellipse class="cls-4" cx="16.78" cy="34.68" rx="0.13" ry="0.93" transform="translate(-20.26 24.09) rotate(-48.22)"/><ellipse class="cls-4" cx="15.4" cy="33.27" rx="0.22" ry="1" transform="translate(-20.79 27.46) rotate(-56.04)"/><ellipse class="cls-4" cx="14.12" cy="32.05" rx="0.36" ry="1" transform="translate(-20.76 35.26) rotate(-71.48)"/><ellipse class="cls-4" cx="12.65" cy="30.84" rx="0.51" ry="1.02" transform="translate(-18.76 42.01) rotate(-87.27)"/><ellipse class="cls-4" cx="29.13" cy="39.26" rx="1.9" ry="0.68" transform="translate(-14.5 61.31) rotate(-80.23)"/><ellipse class="cls-4" cx="30.14" cy="34.39" rx="1.99" ry="0.85" transform="translate(-8.86 58.26) rotate(-80.23)"/><ellipse class="cls-4" cx="31.29" cy="28.78" rx="2.14" ry="0.96" transform="translate(-2.38 54.73) rotate(-80.23)"/></svg>